# Blender v2.79 (sub 0) OBJ File: ''
# www.blender.org
mtllib test_mesh.mtl
o Cube
v 1.000000 -1.000000 -1.000000
v 1.000000 -1.000000 1.000000
v -1.000000 -1.000000 1.000000
v -1.000000 -1.000000 -1.000000
v 1.000000 1.000000 -0.999999
v 0.999999 1.000000 1.000001
v -1.000000 1.000000 1.000000
v -1.000000 1.000000 -1.000000
v 0.320982 -2.975494 -0.320982
v 0.320982 -2.975494 0.320982
v -0.320982 -2.975494 -0.320982
v -0.320982 -2.975494 0.320982
v 0.320982 2.975494 -0.320982
v 0.320982 2.975494 0.320982
v -0.320982 2.975494 -0.320982
v -0.320982 2.975494 0.320982
v 0.465553 -0.465552 -2.912056
v -0.465552 -0.465552 -2.912056
v 0.465553 0.465553 -2.912056
v 0.465552 -0.465553 2.912056
v -0.465553 -0.465553 2.912056
v 0.465552 0.465552 2.912057
v -0.465554 0.465552 2.912056
v -0.465552 0.465553 -2.912056
v 3.199555 -0.320176 -0.320175
v 3.199555 -0.320176 0.320177
v 3.199555 0.320176 -0.320175
v 3.199555 0.320176 0.320177
v -3.199555 -0.320176 0.320176
v -3.199555 -0.320176 -0.320177
v -3.199555 0.320176 0.320176
v -3.199555 0.320176 -0.320177
vt 0.187644 0.611781
vt 0.187644 0.801637
vt 0.000000 0.737179
vt 0.000000 0.676239
vt 0.379943 0.810144
vt 0.379943 0.620845
vt 0.567586 0.690048
vt 0.567586 0.750809
vt 0.569914 0.620845
vt 0.379943 0.620845
vt 0.444516 0.417598
vt 0.505341 0.417598
vt 0.561561 0.810144
vt 0.561561 1.000000
vt 0.379943 0.949266
vt 0.379943 0.860878
vt 0.569914 0.208799
vt 0.379943 0.208799
vt 0.444516 0.000000
vt 0.505341 0.000000
vt 0.939176 0.607454
vt 0.939176 0.797310
vt 0.757558 0.746576
vt 0.757558 0.658188
vt 0.189971 0.904084
vt 0.250949 0.904084
vt 0.250949 0.965024
vt 0.189971 0.965024
vt 0.250949 0.965024
vt 0.250949 0.904084
vt 0.311926 0.904084
vt 0.311926 0.965024
vt 0.377615 0.626397
vt 0.377615 0.815696
vt 0.189971 0.756361
vt 0.189971 0.695599
vt 0.757558 0.417598
vt 0.757558 0.607454
vt 0.569914 0.542996
vt 0.569914 0.482056
vt 0.757558 0.607454
vt 0.757558 0.797310
vt 0.569914 0.732852
vt 0.569914 0.671912
vt 0.757558 0.189856
vt 0.757558 0.379711
vt 0.569914 0.315254
vt 0.569914 0.254313
vt 0.757558 0.000000
vt 0.757558 0.189856
vt 0.569914 0.125398
vt 0.569914 0.064458
vt 0.187644 0.421925
vt 0.000000 0.547323
vt 0.000000 0.486383
vt 0.278413 0.904084
vt 0.278413 0.815696
vt 0.366595 0.815696
vt 0.366595 0.904084
vt 0.278413 0.815696
vt 0.278413 0.904084
vt 0.189971 0.904084
vt 0.189971 0.815696
vt 0.000000 0.991492
vt 0.000000 0.801637
vt 0.181618 0.852371
vt 0.181618 0.940758
vt 0.757558 0.987165
vt 0.757558 0.797310
vt 0.939176 0.848044
vt 0.939176 0.936431
vt 0.569914 0.987165
vt 0.569914 0.797310
vt 0.751532 0.848044
vt 0.751532 0.936431
vt 0.757558 0.417598
vt 0.939176 0.468332
vt 0.939176 0.556720
vt 0.939176 0.000000
vt 0.939176 0.189856
vt 0.757558 0.139122
vt 0.757558 0.050734
vt 0.939176 0.189856
vt 0.939176 0.379712
vt 0.757558 0.328978
vt 0.757558 0.240590
vt 0.311926 0.904084
vt 0.372750 0.904084
vt 0.372750 0.964871
vt 0.311926 0.964871
vt 1.000000 0.060787
vt 0.939176 0.060787
vt 0.939176 0.000000
vt 1.000000 0.000000
vt 0.189971 0.213126
vt 0.000000 0.213126
vt 0.064573 0.000000
vt 0.125398 0.000000
vt 0.000000 0.213126
vt 0.189971 0.213126
vt 0.125398 0.421925
vt 0.064574 0.421925
vt 0.379943 0.626397
vt 0.189971 0.626397
vt 0.254545 0.417598
vt 0.315369 0.417598
vt 0.569914 0.417598
vt 0.379943 0.417598
vt 0.444516 0.208799
vt 0.505341 0.208799
vt 0.379943 0.417598
vt 0.189971 0.417598
vt 0.254545 0.208799
vt 0.315369 0.208799
vt 0.379943 0.208799
vt 0.189971 0.208799
vt 0.254545 0.000000
vt 0.315369 0.000000
vn 0.0000 -0.3251 -0.9457
vn -0.0000 -0.3251 0.9457
vn -0.2953 0.0000 0.9554
vn 0.0000 -0.9631 -0.2692
vn 0.2953 0.9554 0.0000
vn -0.0000 -0.9631 0.2692
vn 0.0000 -1.0000 -0.0000
vn 0.0000 1.0000 0.0000
vn -0.0000 0.3251 0.9457
vn 0.9457 0.3251 0.0000
vn -0.9457 0.3251 -0.0000
vn 0.9457 -0.3251 0.0000
vn 0.0000 0.3251 -0.9457
vn -0.9457 -0.3251 -0.0000
vn 0.0000 -0.0000 1.0000
vn 0.0000 0.0000 -1.0000
vn -0.0000 0.9631 0.2692
vn -0.9631 -0.0000 0.2692
vn 0.9631 0.0000 0.2692
vn 0.9631 -0.0000 -0.2692
vn 0.0000 0.9631 -0.2692
vn -0.9631 -0.0000 -0.2692
vn 1.0000 0.0000 0.0000
vn -1.0000 -0.0000 -0.0000
vn 0.2953 -0.0000 0.9554
vn 0.2953 0.0000 -0.9554
vn -0.2953 0.9554 0.0000
vn 0.2953 -0.9554 0.0000
vn -0.2953 0.0000 -0.9554
vn -0.2953 -0.9554 -0.0000
usemtl Material
s off
f 4/1/1 1/2/1 9/3/1 11/4/1
f 2/5/2 3/6/2 12/7/2 10/8/2
f 3/9/3 7/10/3 31/11/3 29/12/3
f 1/13/4 4/14/4 18/15/4 17/16/4
f 5/17/5 6/18/5 28/19/5 27/20/5
f 3/21/6 2/22/6 20/23/6 21/24/6
f 9/25/7 10/26/7 12/27/7 11/28/7
f 13/29/8 15/30/8 16/31/8 14/32/8
f 7/33/9 6/34/9 14/35/9 16/36/9
f 6/37/10 5/38/10 13/39/10 14/40/10
f 8/41/11 7/42/11 16/43/11 15/44/11
f 1/45/12 2/46/12 10/47/12 9/48/12
f 5/49/13 8/50/13 15/51/13 13/52/13
f 3/53/14 4/1/14 11/54/14 12/55/14
f 20/56/15 22/57/15 23/58/15 21/59/15
f 19/60/16 17/61/16 18/62/16 24/63/16
f 6/64/17 7/65/17 23/66/17 22/67/17
f 7/68/18 3/69/18 21/70/18 23/71/18
f 2/72/19 6/73/19 22/74/19 20/75/19
f 5/38/20 1/76/20 17/77/20 19/78/20
f 8/79/21 5/80/21 19/81/21 24/82/21
f 4/83/22 8/84/22 24/85/22 18/86/22
f 25/87/23 27/88/23 28/89/23 26/90/23
f 29/91/24 31/92/24 32/93/24 30/94/24
f 6/95/25 2/96/25 26/97/25 28/98/25
f 1/99/26 5/100/26 27/101/26 25/102/26
f 7/103/27 8/104/27 32/105/27 31/106/27
f 2/107/28 1/108/28 25/109/28 26/110/28
f 8/111/29 4/112/29 30/113/29 32/114/29
f 4/115/30 3/116/30 29/117/30 30/118/30
